Coordinates
version=1
nRows=8
nColumns=63
inDegrees=yes

Units are S.I. units (second, meters, Newtons, ...)
If the header above contains a line with 'inDegrees', this indicates whether rotational values are in degrees (yes) or radians (no).

endheader
time	pelvis_tilt	pelvis_list	pelvis_rotation	pelvis_tx	pelvis_ty	pelvis_tz	hip_flexion_r	hip_adduction_r	hip_rotation_r	knee_angle_r	knee_angle_r_beta	ankle_angle_r	subtalar_angle_r	mtp_angle_r	hip_flexion_l	hip_adduction_l	hip_rotation_l	knee_angle_l	knee_angle_l_beta	ankle_angle_l	subtalar_angle_l	mtp_angle_l	L5_S1_Flex_Ext	L5_S1_Lat_Bending	L5_S1_axial_rotation	L4_L5_Flex_Ext	L4_L5_Lat_Bending	L4_L5_axial_rotation	L3_L4_Flex_Ext	L3_L4_Lat_Bending	L3_L4_axial_rotation	L2_L3_Flex_Ext	L2_L3_Lat_Bending	L2_L3_axial_rotation	L1_L2_Flex_Ext	L1_L2_Lat_Bending	L1_L2_axial_rotation	L1_T12_Flex_Ext	L1_T12_Lat_Bending	L1_T12_axial_rotation	Abs_r3	Abs_r2	Abs_r1	Abs_t1	Abs_t2	neck_flexion	neck_bending	neck_rotation	arm_flex_r	arm_add_r	arm_rot_r	elbow_flex_r	pro_sup_r	wrist_flex_r	wrist_dev_r	arm_flex_l	arm_add_l	arm_rot_l	elbow_flex_l	pro_sup_l	wrist_flex_l	wrist_dev_l
      1.14285714	     -8.16716255	     -9.24952815	     84.61817742	      0.21207395	      0.72327465	      0.81872244	     26.11205498	      0.63997233	     10.85475307	     25.38671078	      0.44308169	     30.68868045	    -15.04699436	      0.00000000	     22.71957077	      3.39465524	      4.00844688	     17.64635203	      0.30798694	     34.14303310	    -14.79852394	      0.00000000	      0.10002968	     -0.86812162	      1.26807393	      0.18576513	     -1.15460175	      1.34732855	      0.16433877	     -2.11075090	      1.34732855	      0.11432393	     -2.11075090	      1.10956469	      0.09288756	     -1.77027361	      1.03031007	      0.05715696	     -1.34472039	      0.95105545	      0.71450203	     -9.82036538	      7.05264677	      0.00000000	      0.00000000	     27.56443235	      3.62738888	     -8.21935948	      2.54964455	    -12.47935735	      5.24430537	    108.26565570	     84.58853122	     -4.97241015	      3.85155538	    -13.97687227	    -22.09137654	    -10.16993163	    101.35938907	     86.70554013	    -11.09746245	      7.87948467
      1.16666667	     -8.23488703	    -10.10151096	     84.31049455	      0.21180092	      0.72122280	      0.81951213	     27.20871249	      0.73294908	     11.29292052	     25.60808789	      0.44694545	     30.59849731	    -14.47218061	      0.00000000	     23.39421178	      3.25913374	      3.66389985	     17.06967253	      0.29792199	     34.16306168	    -14.66962105	      0.00000000	      0.10344356	     -0.86920714	      1.37267490	      0.19210503	     -1.15604549	      1.45846709	      0.16994742	     -2.11339024	      1.45846709	      0.11822564	     -2.11339024	      1.20109054	      0.09605769	     -1.77248720	      1.11529836	      0.05910765	     -1.34640186	      1.02950618	      0.73888699	     -9.83264500	      7.63440601	      0.00000000	      0.00000000	     27.77099086	      3.83214139	     -8.38130395	     -1.87571467	    -12.05089235	      3.37567785	    108.46686611	     85.11377914	     -4.19553341	      2.61676369	    -12.34946676	    -21.24171556	    -10.43623502	    104.95641027	     86.18112063	    -10.04568115	      5.02810081
      1.19047619	     -8.12592514	    -10.74985682	     84.19347067	      0.21114135	      0.71946957	      0.81987511	     28.05107481	      0.87755716	     11.46828895	     25.84511989	      0.45108244	     30.66341068	    -13.84167853	      0.00000000	     23.92206601	      3.04549820	      3.51460261	     16.71844048	      0.29179183	     34.15640795	    -14.59417725	      0.00000000	      0.10076672	     -0.84355943	      1.38441423	      0.18713387	     -1.12193404	      1.47094012	      0.16554964	     -2.05103039	      1.47094012	      0.11516628	     -2.05103039	      1.21136245	      0.09357198	     -1.72018639	      1.12483657	      0.05757810	     -1.30667355	      1.03831068	      0.71976660	     -9.54251296	      7.69969665	      0.00000000	      0.00000000	     27.92157097	      3.88156713	     -7.95113276	     -6.81631178	    -12.11683471	      2.23703355	    106.83678966	     85.35115545	     -3.58520534	      1.86925363	    -10.01727256	    -20.26871226	    -10.68502374	    109.81831443	     85.27058512	     -8.64512595	      2.04716326
      1.21428571	     -7.72451690	    -11.27481115	     84.51270128	      0.20948268	      0.71812992	      0.82005818	     28.63843524	      1.06858831	     11.25623216	     25.94828400	      0.45288299	     30.86858292	    -13.24673168	      0.00000000	     24.41555069	      2.77646652	      3.86329017	     16.55576336	      0.28895258	     34.14134324	    -14.72842669	      0.00000000	      0.09861275	     -0.77131408	      1.27698104	      0.18313374	     -1.02584772	      1.35679236	      0.16201089	     -1.87537305	      1.35679236	      0.11270452	     -1.87537305	      1.11735841	      0.09157180	     -1.57286367	      1.03754710	      0.05634733	     -1.19476551	      0.95773578	      0.70438103	     -8.72525912	      7.10218548	      0.00000000	      0.00000000	     28.03180281	      3.86018152	     -6.79775498	    -11.31472907	    -12.89288344	      1.84176918	    103.46238967	     85.95340681	     -3.26713014	      0.53566206	     -6.75114733	    -19.23317275	    -10.41456120	    114.84300536	     83.97360894	     -8.25282058	      0.57771185
      1.23809524	     -7.23376270	    -11.70583520	     84.89119071	      0.20742204	      0.71698367	      0.82036005	     29.15615424	      1.31466389	     11.05915556	     26.07487267	      0.45509238	     31.34866909	    -12.78690260	      0.00000000	     24.84716371	      2.47803287	      4.23741575	     16.42623658	      0.28669191	     34.20258916	    -14.71084437	      0.00000000	      0.10086412	     -0.67540486	      1.16998439	      0.18731475	     -0.89828847	      1.24310842	      0.16570966	     -1.64217938	      1.24310842	      0.11527760	     -1.64217938	      1.02373634	      0.09366242	     -1.37728560	      0.95061232	      0.05763376	     -1.04620213	      0.87748829	      0.72046230	     -7.64031489	      6.50710219	      0.00000000	      0.00000000	     28.09608611	      3.80925152	     -5.16362939	    -14.81502341	    -14.19382562	      1.92875851	     99.47520622	     86.42271774	     -3.35188433	     -0.51170726	     -3.09260748	    -18.29863136	     -9.65262662	    119.04908849	     82.77181243	     -8.53781569	      0.32361113
      1.26190476	     -6.82298588	    -11.93716237	     85.37597809	      0.20566839	      0.71609408	      0.82114779	     29.42890402	      1.40428944	     10.48900364	     25.98118340	      0.45345719	     32.19534771	    -12.12789456	      0.00000000	     25.42518184	      2.33170888	      4.75147166	     16.94473006	      0.29574133	     34.34589877	    -14.99941537	      0.00000000	      0.07598745	     -0.59667568	      1.03001964	      0.14111630	     -0.79357865	      1.09439587	      0.12483979	     -1.45075725	      1.09439587	      0.08684606	     -1.45075725	      0.90126719	      0.07056195	     -1.21674105	      0.83689096	      0.04341923	     -0.92425063	      0.77251473	      0.54277078	     -6.74971462	      5.72866025	      0.00000000	      0.00000000	     28.12235676	      3.89767385	     -3.58175453	    -16.52116360	    -15.53519333	      2.67082187	     96.10656489	     86.97736717	     -3.77680220	     -2.30670985	     -0.41396912	    -17.79918499	     -8.84009823	    122.35004432	     80.95416959	     -9.30479660	      0.15349051
      1.28571429	     -6.67194798	    -12.22887305	     85.68156689	      0.20464152	      0.71498725	      0.82222034	     29.91743409	      1.35398760	      9.93237353	     26.03412705	      0.45438123	     33.10716886	    -11.32002512	      0.00000000	     25.89399357	      2.35260455	      5.22624258	     17.11030777	      0.29863121	     34.27597207	    -15.26836859	      0.00000000	      0.06400105	     -0.56323891	      0.91457580	      0.11885635	     -0.74910775	      0.97173679	      0.10514732	     -1.36945909	      0.97173679	      0.07314680	     -1.36945909	      0.80025383	      0.05943137	     -1.14855679	      0.74309284	      0.03657020	     -0.87245707	      0.68593185	      0.45715310	     -6.37147121	      5.08659624	      0.00000000	      0.00000000	     28.10199011	      4.36401396	     -2.74551141	    -16.80434941	    -16.46085288	      3.56229794	     95.74114354	     87.09680104	     -4.92428445	     -2.41826908	      0.42262670	    -17.72700102	     -8.45762082	    124.66933436	     79.69401463	     -9.00688888	     -0.55670556
      1.30952381	     -6.64955169	    -12.50643188	     85.73668829	      0.20441791	      0.71356842	      0.82365688	     30.55198577	      1.45426525	      9.92325518	     26.33702454	      0.45966779	     33.60330913	    -11.44289849	      0.00000000	     26.48884717	      2.35242696	      5.35374365	     17.57945125	      0.30681930	     34.51222116	    -15.26533350	      0.00000000	      0.04574325	     -0.56444880	      0.89140850	      0.08494979	     -0.75071691	      0.94712154	      0.07515159	     -1.37240082	      0.94712154	      0.05227996	     -1.37240082	      0.77998244	      0.04247718	     -1.15102400	      0.72426941	      0.02613769	     -0.87433120	      0.66855638	      0.32673948	     -6.38515775	      4.95774668	      0.00000000	      0.00000000	     28.03627277	      5.21173579	     -2.72428763	    -16.01898067	    -16.57687326	      3.50920779	     98.57944539	     87.13179059	     -4.82546698	     -2.16640422	     -0.46104465	    -18.21318220	     -8.11429879	    125.71606615	     80.26240738	     -8.42918503	     -0.21039669
